<svg width="285" height="115" viewBox="0 0 285 115" fill="none" xmlns="http://www.w3.org/2000/svg">
<g clip-path="url(#clip0_2_2729)">
<path d="M28.3764 32.2V0.657142H38.4956C38.7417 0.657142 39.2484 0.664444 40.0156 0.679048C40.7829 0.69365 41.5212 0.744761 42.2306 0.832381C44.7495 1.13905 46.8848 2.02254 48.6365 3.48286C50.3882 4.94317 51.72 6.79778 52.6321 9.04667C53.5441 11.2956 54.0001 13.7562 54.0001 16.4286C54.0001 19.101 53.5441 21.5616 52.6321 23.8105C51.72 26.0594 50.3882 27.914 48.6365 29.3743C46.8848 30.8346 44.7495 31.7181 42.2306 32.0248C41.5212 32.1124 40.7829 32.1635 40.0156 32.1781C39.2484 32.1927 38.7417 32.2 38.4956 32.2H28.3764ZM34.3697 26.5924H38.4956C38.8864 26.5924 39.4148 26.5851 40.0808 26.5705C40.7467 26.5413 41.3475 26.4756 41.8831 26.3733C43.2439 26.0959 44.3514 25.4533 45.2055 24.4457C46.0741 23.4381 46.7111 22.226 47.1165 20.8095C47.5363 19.393 47.7462 17.9327 47.7462 16.4286C47.7462 14.8514 47.529 13.3546 47.0947 11.9381C46.6749 10.5216 46.0307 9.32412 45.1621 8.34571C44.2935 7.3673 43.2005 6.74667 41.8831 6.48381C41.3475 6.36698 40.7467 6.30127 40.0808 6.28666C39.4148 6.27206 38.8864 6.26476 38.4956 6.26476H34.3697V26.5924Z" fill="#E8E8E8"/>
<path d="M58.3414 32.2V0.657142H64.2479V32.2H58.3414Z" fill="#E8E8E8"/>
<path d="M82.4842 32.8571C80.5153 32.8571 78.6406 32.5067 76.86 31.8057C75.0793 31.0902 73.5014 30.0387 72.1261 28.6514C70.7653 27.2641 69.6868 25.5483 68.8905 23.5038C68.1088 21.4594 67.7179 19.101 67.7179 16.4286C67.7179 12.9384 68.3766 9.97397 69.694 7.53524C71.0259 5.0819 72.8065 3.2127 75.0359 1.92762C77.2798 0.642539 79.7625 0 82.4842 0C86.5087 0 89.6718 0.941904 91.9736 2.82571C94.2754 4.70952 95.8172 7.3746 96.5989 10.821L90.5622 11.6971C89.9976 9.85714 89.0711 8.38952 87.7826 7.29428C86.5087 6.18444 84.8728 5.62222 82.875 5.60762C80.8917 5.57841 79.2414 6.0092 77.924 6.9C76.6066 7.79079 75.615 9.05397 74.949 10.6895C74.2976 12.3251 73.9719 14.2381 73.9719 16.4286C73.9719 18.619 74.2976 20.5175 74.949 22.1238C75.615 23.7302 76.6066 24.9787 77.924 25.8695C79.2414 26.7603 80.8917 27.2203 82.875 27.2495C84.2214 27.2787 85.4374 27.0451 86.5232 26.5486C87.6234 26.0521 88.5499 25.2708 89.3027 24.2048C90.0555 23.1387 90.5911 21.7733 90.9096 20.1086H85.9586V15.5086H97.207C97.2359 15.6984 97.2576 16.0343 97.2721 16.5162C97.2866 16.9981 97.2938 17.2756 97.2938 17.3486C97.2938 20.3714 96.6858 23.0511 95.4698 25.3876C94.2537 27.7241 92.5382 29.5568 90.3233 30.8857C88.1084 32.2 85.4953 32.8571 82.4842 32.8571Z" fill="#E8E8E8"/>
<path d="M100.777 32.2V0.657142H106.684V32.2H100.777Z" fill="#E8E8E8"/>
<path d="M119.144 32.2V6.22095H109.285V0.657142H134.909V6.22095H125.05V32.2H119.144Z" fill="#E8E8E8"/>
<path d="M134.076 32.2L143.631 0.657142H152.447L162.002 32.2H155.921L147.409 4.38095H148.538L140.156 32.2H134.076ZM139.809 25.6286V20.0648H156.312V25.6286H139.809Z" fill="#E8E8E8"/>
	<path d="M165.025 32.2V0.657142H170.932V26.6362H184.395V32.2H165.025Z" fill="#E8E8E8"/>
<path d="M41.7963 73.9286C38.6693 73.9286 35.9694 73.2422 33.6966 71.8695C31.4382 70.4968 29.6937 68.5765 28.4632 66.1086C27.2472 63.6406 26.6392 60.7711 26.6392 57.5C26.6392 54.2289 27.2472 51.3594 28.4632 48.8914C29.6937 46.4235 31.4382 44.5032 33.6966 43.1305C35.9694 41.7578 38.6693 41.0714 41.7963 41.0714C45.3865 41.0714 48.3976 41.9695 50.8297 43.7657C53.2763 45.5619 54.999 47.9933 55.9979 51.06L50.048 52.7248C49.4689 50.8117 48.4917 49.3295 47.1165 48.2781C45.7412 47.2121 43.9678 46.679 41.7963 46.679C39.813 46.679 38.1554 47.1244 36.8235 48.0152C35.5061 48.906 34.5145 50.1619 33.8486 51.7829C33.1826 53.4038 32.8497 55.3095 32.8497 57.5C32.8497 59.6905 33.1826 61.5962 33.8486 63.2171C34.5145 64.8381 35.5061 66.094 36.8235 66.9848C38.1554 67.8755 39.813 68.3209 41.7963 68.3209C43.9678 68.3209 45.7412 67.7879 47.1165 66.7219C48.4917 65.6559 49.4689 64.1736 50.048 62.2752L55.9979 63.94C54.999 67.0067 53.2763 69.4381 50.8297 71.2343C48.3976 73.0305 45.3865 73.9286 41.7963 73.9286Z" fill="#E8E8E8"/>
<path d="M72.8963 73.9286C69.7693 73.9286 67.0694 73.2422 64.7966 71.8695C62.5382 70.4968 60.7938 68.5765 59.5632 66.1086C58.3472 63.6406 57.7392 60.7711 57.7392 57.5C57.7392 54.2289 58.3472 51.3594 59.5632 48.8914C60.7938 46.4235 62.5382 44.5032 64.7966 43.1305C67.0694 41.7578 69.7693 41.0714 72.8963 41.0714C76.0233 41.0714 78.7159 41.7578 80.9743 43.1305C83.2471 44.5032 84.9916 46.4235 86.2076 48.8914C87.4381 51.3594 88.0534 54.2289 88.0534 57.5C88.0534 60.7711 87.4381 63.6406 86.2076 66.1086C84.9916 68.5765 83.2471 70.4968 80.9743 71.8695C78.7159 73.2422 76.0233 73.9286 72.8963 73.9286ZM72.8963 68.3209C74.8796 68.3502 76.5299 67.9194 77.8473 67.0286C79.1647 66.1378 80.1491 64.8746 80.8006 63.239C81.4665 61.6035 81.7995 59.6905 81.7995 57.5C81.7995 55.3095 81.4665 53.4111 80.8006 51.8048C80.1491 50.1984 79.1647 48.9498 77.8473 48.059C76.5299 47.1682 74.8796 46.7082 72.8963 46.679C70.913 46.6498 69.2626 47.0806 67.9453 47.9714C66.6279 48.8622 65.6362 50.1254 64.9703 51.7609C64.3188 53.3965 63.9931 55.3095 63.9931 57.5C63.9931 59.6905 64.3188 61.5889 64.9703 63.1952C65.6362 64.8016 66.6279 66.0502 67.9453 66.9409C69.2626 67.8317 70.913 68.2917 72.8963 68.3209Z" fill="#E8E8E8"/>
<path d="M91.0854 73.2714V41.7286H97.0787L110.672 62.7571V41.7286H116.666V73.2714H110.672L97.0787 52.2429V73.2714H91.0854Z" fill="#E8E8E8"/>
<path d="M133.235 73.9286C130.919 73.9286 128.827 73.5197 126.959 72.7019C125.106 71.8695 123.579 70.6867 122.377 69.1533C121.19 67.6054 120.438 65.7654 120.119 63.6333L126.286 62.7133C126.72 64.5241 127.618 65.9187 128.979 66.8971C130.34 67.8755 131.889 68.3648 133.626 68.3648C134.596 68.3648 135.537 68.2114 136.449 67.9048C137.361 67.5981 138.106 67.1454 138.685 66.5467C139.279 65.9479 139.576 65.2105 139.576 64.3343C139.576 64.013 139.525 63.7063 139.424 63.4143C139.337 63.1076 139.185 62.8229 138.968 62.56C138.751 62.2971 138.439 62.0489 138.034 61.8152C137.643 61.5816 137.144 61.3698 136.536 61.18L128.414 58.7705C127.806 58.5952 127.097 58.347 126.286 58.0257C125.49 57.7044 124.715 57.2444 123.963 56.6457C123.21 56.047 122.58 55.2584 122.073 54.28C121.581 53.287 121.335 52.0384 121.335 50.5343C121.335 48.4168 121.863 46.6571 122.92 45.2552C123.977 43.8533 125.389 42.8092 127.155 42.1229C128.921 41.4365 130.875 41.1006 133.018 41.1152C135.175 41.1444 137.1 41.5168 138.794 42.2324C140.488 42.9479 141.906 43.9921 143.05 45.3648C144.194 46.7229 145.019 48.3876 145.526 50.359L139.141 51.4543C138.91 50.4321 138.483 49.5705 137.86 48.8695C137.238 48.1686 136.492 47.6356 135.624 47.2705C134.769 46.9054 133.872 46.7082 132.931 46.679C132.004 46.6498 131.129 46.7813 130.303 47.0733C129.493 47.3508 128.827 47.7597 128.306 48.3C127.799 48.8403 127.546 49.4829 127.546 50.2276C127.546 50.914 127.756 51.4762 128.175 51.9143C128.595 52.3378 129.124 52.6809 129.761 52.9438C130.398 53.2067 131.049 53.4257 131.715 53.6009L137.144 55.0905C137.954 55.3095 138.852 55.6016 139.836 55.9667C140.821 56.3171 141.762 56.8136 142.659 57.4562C143.571 58.0841 144.317 58.9165 144.896 59.9533C145.489 60.9902 145.786 62.3044 145.786 63.8962C145.786 65.5902 145.432 67.0724 144.722 68.3428C144.027 69.5987 143.086 70.6429 141.899 71.4752C140.712 72.293 139.366 72.9063 137.86 73.3152C136.369 73.7241 134.827 73.9286 133.235 73.9286Z" fill="#E8E8E8"/>
<path d="M149.256 73.2714V41.7286H169.668V47.2924H155.163V54.039H167.063V59.6029H155.163V67.7076H169.668V73.2714H149.256Z" fill="#E8E8E8"/>
<path d="M173.57 73.2714V41.7286H179.564L193.157 62.7571V41.7286H199.151V73.2714H193.157L179.564 52.2429V73.2714H173.57Z" fill="#E8E8E8"/>
<path d="M215.72 73.9286C213.404 73.9286 211.312 73.5197 209.444 72.7019C207.591 71.8695 206.064 70.6867 204.862 69.1533C203.675 67.6054 202.922 65.7654 202.604 63.6333L208.771 62.7133C209.205 64.5241 210.103 65.9187 211.464 66.8971C212.825 67.8755 214.374 68.3648 216.111 68.3648C217.081 68.3648 218.022 68.2114 218.934 67.9048C219.846 67.5981 220.591 67.1454 221.17 66.5467C221.764 65.9479 222.061 65.2105 222.061 64.3343C222.061 64.013 222.01 63.7063 221.909 63.4143C221.822 63.1076 221.67 62.8229 221.453 62.56C221.236 62.2971 220.924 62.0489 220.519 61.8152C220.128 61.5816 219.629 61.3698 219.021 61.18L210.899 58.7705C210.291 58.5952 209.582 58.347 208.771 58.0257C207.975 57.7044 207.2 57.2444 206.448 56.6457C205.695 56.047 205.065 55.2584 204.558 54.28C204.066 53.287 203.82 52.0384 203.82 50.5343C203.82 48.4168 204.348 46.6571 205.405 45.2552C206.462 43.8533 207.874 42.8092 209.64 42.1229C211.406 41.4365 213.36 41.1006 215.503 41.1152C217.66 41.1444 219.585 41.5168 221.279 42.2324C222.973 42.9479 224.391 43.9921 225.535 45.3648C226.679 46.7229 227.504 48.3876 228.011 50.359L221.626 51.4543C221.395 50.4321 220.968 49.5705 220.345 48.8695C219.723 48.1686 218.977 47.6356 218.109 47.2705C217.254 46.9054 216.357 46.7082 215.416 46.679C214.489 46.6498 213.614 46.7813 212.788 47.0733C211.978 47.3508 211.312 47.7597 210.791 48.3C210.284 48.8403 210.031 49.4829 210.031 50.2276C210.031 50.914 210.24 51.4762 210.66 51.9143C211.08 52.3378 211.609 52.6809 212.245 52.9438C212.882 53.2067 213.534 53.4257 214.2 53.6009L219.629 55.0905C220.439 55.3095 221.337 55.6016 222.321 55.9667C223.306 56.3171 224.247 56.8136 225.144 57.4562C226.056 58.0841 226.802 58.9165 227.381 59.9533C227.974 60.9902 228.271 62.3044 228.271 63.8962C228.271 65.5902 227.917 67.0724 227.207 68.3428C226.512 69.5987 225.571 70.6429 224.384 71.4752C223.197 72.293 221.851 72.9063 220.345 73.3152C218.854 73.7241 217.312 73.9286 215.72 73.9286Z" fill="#E8E8E8"/>
<path d="M244.466 73.9286C241.947 73.9286 239.732 73.4175 237.821 72.3952C235.91 71.3584 234.419 69.9054 233.348 68.0362C232.277 66.167 231.741 63.9692 231.741 61.4429V41.7724L237.735 41.7286V61.399C237.735 62.4359 237.908 63.3778 238.256 64.2248C238.603 65.0717 239.081 65.8019 239.689 66.4152C240.311 67.0286 241.028 67.5032 241.839 67.839C242.664 68.1603 243.54 68.3209 244.466 68.3209C245.422 68.3209 246.305 68.153 247.115 67.8171C247.941 67.4813 248.657 67.0067 249.265 66.3933C249.873 65.78 250.344 65.0498 250.677 64.2029C251.024 63.3559 251.198 62.4213 251.198 61.399V41.7286H257.191V61.4429C257.191 63.9692 256.656 66.167 255.584 68.0362C254.513 69.9054 253.022 71.3584 251.111 72.3952C249.2 73.4175 246.985 73.9286 244.466 73.9286Z" fill="#E8E8E8"/>
<path d="M272.449 73.9286C270.133 73.9286 268.041 73.5197 266.173 72.7019C264.32 71.8695 262.793 70.6867 261.591 69.1533C260.404 67.6054 259.651 65.7654 259.333 63.6333L265.5 62.7133C265.934 64.5241 266.832 65.9187 268.193 66.8971C269.553 67.8755 271.102 68.3648 272.84 68.3648C273.81 68.3648 274.751 68.2114 275.663 67.9048C276.575 67.5981 277.32 67.1454 277.899 66.5467C278.493 65.9479 278.79 65.2105 278.79 64.3343C278.79 64.013 278.739 63.7063 278.638 63.4143C278.551 63.1076 278.399 62.8229 278.182 62.56C277.964 62.2971 277.653 62.0489 277.248 61.8152C276.857 61.5816 276.357 61.3698 275.749 61.18L267.628 58.7705C267.02 58.5952 266.311 58.347 265.5 58.0257C264.704 57.7044 263.929 57.2444 263.176 56.6457C262.424 56.047 261.794 55.2584 261.287 54.28C260.795 53.287 260.549 52.0384 260.549 50.5343C260.549 48.4168 261.077 46.6571 262.134 45.2552C263.191 43.8533 264.602 42.8092 266.369 42.1229C268.135 41.4365 270.089 41.1006 272.232 41.1152C274.389 41.1444 276.314 41.5168 278.008 42.2324C279.702 42.9479 281.12 43.9921 282.264 45.3648C283.408 46.7229 284.233 48.3876 284.739 50.359L278.355 51.4543C278.124 50.4321 277.697 49.5705 277.074 48.8695C276.452 48.1686 275.706 47.6356 274.837 47.2705C273.983 46.9054 273.086 46.7082 272.145 46.679C271.218 46.6498 270.342 46.7813 269.517 47.0733C268.707 47.3508 268.041 47.7597 267.519 48.3C267.013 48.8403 266.759 49.4829 266.759 50.2276C266.759 50.914 266.969 51.4762 267.389 51.9143C267.809 52.3378 268.337 52.6809 268.974 52.9438C269.611 53.2067 270.263 53.4257 270.929 53.6009L276.357 55.0905C277.168 55.3095 278.066 55.6016 279.05 55.9667C280.035 56.3171 280.976 56.8136 281.873 57.4562C282.785 58.0841 283.531 58.9165 284.11 59.9533C284.703 60.9902 285 62.3044 285 63.8962C285 65.5902 284.645 67.0724 283.936 68.3428C283.241 69.5987 282.3 70.6429 281.113 71.4752C279.926 72.293 278.58 72.9063 277.074 73.3152C275.583 73.7241 274.041 73.9286 272.449 73.9286Z" fill="#E8E8E8"/>
<path d="M28.3764 114.343V82.8H47.4856V88.7581H34.2829V95.5924H44.8798V101.55H34.2829V114.343H28.3764Z" fill="#E8E8E8"/>
<path d="M62.8283 115C60.3094 115 58.0944 114.489 56.1835 113.467C54.2726 112.43 52.7815 110.977 51.7102 109.108C50.6389 107.238 50.1033 105.041 50.1033 102.514V82.8438L56.0966 82.8V102.47C56.0966 103.507 56.2704 104.449 56.6178 105.296C56.9652 106.143 57.443 106.873 58.051 107.487C58.6735 108.1 59.3901 108.575 60.2008 108.91C61.026 109.232 61.9018 109.392 62.8283 109.392C63.7838 109.392 64.6668 109.224 65.4775 108.889C66.3027 108.553 67.0193 108.078 67.6273 107.465C68.2354 106.851 68.7058 106.121 69.0388 105.274C69.3863 104.427 69.56 103.493 69.56 102.47V82.8H75.5533V102.514C75.5533 105.041 75.0177 107.238 73.9464 109.108C72.8751 110.977 71.384 112.43 69.4731 113.467C67.5622 114.489 65.3473 115 62.8283 115Z" fill="#E8E8E8"/>
<path d="M80.3126 114.343V82.8H86.306L99.8996 103.829V82.8H105.893V114.343H99.8996L86.306 93.3143V114.343H80.3126Z" fill="#E8E8E8"/>
<path d="M110.649 114.343V82.8H120.768C121.015 82.8 121.521 82.8073 122.289 82.8219C123.056 82.8365 123.794 82.8876 124.503 82.9752C127.022 83.2819 129.158 84.1654 130.909 85.6257C132.661 87.086 133.993 88.9406 134.905 91.1895C135.817 93.4384 136.273 95.899 136.273 98.5714C136.273 101.244 135.817 103.704 134.905 105.953C133.993 108.202 132.661 110.057 130.909 111.517C129.158 112.977 127.022 113.861 124.503 114.168C123.794 114.255 123.056 114.306 122.289 114.321C121.521 114.336 121.015 114.343 120.768 114.343H110.649ZM116.643 108.735H120.768C121.159 108.735 121.688 108.728 122.354 108.713C123.02 108.684 123.62 108.618 124.156 108.516C125.517 108.239 126.624 107.596 127.478 106.589C128.347 105.581 128.984 104.369 129.389 102.952C129.809 101.536 130.019 100.076 130.019 98.5714C130.019 96.9943 129.802 95.4975 129.368 94.0809C128.948 92.6644 128.304 91.467 127.435 90.4886C126.566 89.5101 125.473 88.8895 124.156 88.6267C123.62 88.5098 123.02 88.4441 122.354 88.4295C121.688 88.4149 121.159 88.4076 120.768 88.4076H116.643V108.735Z" fill="#E8E8E8"/>
<path d="M7.42334 32.2084V0.665527H13.3298V32.2084H7.42334Z" fill="#E8E8E8"/>
<path d="M7.32715 114.305V82.762H13.2336V114.305H7.32715Z" fill="#E8E8E8"/>
<path d="M-7.10285e-05 69.6546L15.6348 42.3377L20.7499 45.3168L5.1151 72.6337L-7.10285e-05 69.6546Z" fill="#9795FF"/>  

</g>
<defs>
<clipPath id="clip0_2_2729">
<rect width="285" height="115" fill="white"/>
</clipPath>
</defs>
</svg>
